<svg xmlns="http://www.w3.org/2000/svg" viewBox="0 0 152.96 414.13"><defs><style>.cls-1{isolation:isolate;}.cls-2{fill:#ff8a64;}.cls-3{fill:#34394d;}.cls-4{opacity:0.17;}.cls-13,.cls-21,.cls-4{mix-blend-mode:multiply;}.cls-5{fill:#d84472;}.cls-6{fill:#a52d4f;}.cls-7{fill:#993952;}.cls-8{fill:#f6a821;}.cls-9{fill:#c13355;}.cls-10{fill:#87821d;}.cls-11{fill:#b7b33d;}.cls-12{fill:#3c2842;}.cls-13{opacity:0.07;}.cls-14{fill:#a09a2a;}.cls-15{fill:#ea4775;}.cls-16{fill:#ef7554;}.cls-17{fill:#cb6a26;}.cls-18{opacity:0.23;mix-blend-mode:overlay;}.cls-19{fill:#ff8e31;}.cls-20{fill:#ffc74c;}.cls-21{opacity:0.13;}</style></defs><title>menina</title><g class="cls-1"><g id="OBJECTS"><path class="cls-2" d="M149.29,444.45c-2.9-5.91-13.78-6.26-18.64-6.53a11.45,11.45,0,0,1-6-2.11l-3.85-2.74,13.44-104,.76-3c-2.39-2.39-27.88,4.35-27.88,4.35l.09,102.27s-4.42,11.25-1.23,12.9c1.36.7,34.66,5.11,42.81.31A1,1,0,0,0,149.29,444.45Z" transform="translate(-39.19 -33.99)"/><path class="cls-2" d="M97.93,432.69,98,330.42s-25.49-6.74-27.88-4.35l.76,3,13.44,104-3.85,2.74a11.45,11.45,0,0,1-6,2.11c-4.86.27-15.74.62-18.64,6.53a1,1,0,0,0,.51,1.45c8.15,4.8,41.45.39,42.81-.31C102.35,443.94,97.93,432.69,97.93,432.69Z" transform="translate(-39.19 -33.99)"/><path class="cls-3" d="M95,441.62a31.59,31.59,0,0,0-11.51-.17,5.64,5.64,0,0,1-2.16.11,5.76,5.76,0,0,1-1.61-.75A31.64,31.64,0,0,0,73.31,438c-5.25.29-14.78,1-17.47,6.47a1,1,0,0,0,.51,1.45c8.15,4.8,41.45.39,42.81-.31,2.12-1.1.87-6.46-.2-9.91A17.47,17.47,0,0,0,95,441.62Z" transform="translate(-39.19 -33.99)"/><path class="cls-3" d="M110.16,441.62a31.58,31.58,0,0,1,11.51-.17,5.63,5.63,0,0,0,2.16.11,5.7,5.7,0,0,0,1.6-.75,32,32,0,0,1,6.39-2.83c5.25.29,14.78,1,17.47,6.47a1,1,0,0,1-.51,1.45c-8.15,4.8-41.45.39-42.81-.31-2.12-1.1-.87-6.46.2-9.91A17.47,17.47,0,0,1,110.16,441.62Z" transform="translate(-39.19 -33.99)"/><g class="cls-4"><path class="cls-5" d="M134.23,329.07l.76-3c-2.39-2.39-27.88,4.35-27.88,4.35v10.44A202.1,202.1,0,0,0,133,338.68Z" transform="translate(-39.19 -33.99)"/></g><g class="cls-4"><path class="cls-5" d="M70.14,326.07l.76,3L72,337.74c1.33.3,2.67.56,4,.8a154.62,154.62,0,0,0,22,2.25V330.42S72.53,323.68,70.14,326.07Z" transform="translate(-39.19 -33.99)"/></g><path class="cls-2" d="M52.65,165.66c-3.93,13.13-4.7,26.12-4.9,39.36a2.62,2.62,0,0,0,.26,1.47,2.66,2.66,0,0,0,1.69.93c10.12,2.56,20.65,3,31,2.29,9.18-.59,17.64-3,26.59-4.15a98.59,98.59,0,0,1-.9-10.15c-2.92-.54-35-6.27-35.05-6,.4-5.71-.5-10.49-1.13-18.14" transform="translate(-39.19 -33.99)"/><path class="cls-2" d="M155.41,166.09c3.5,12.52,4.41,25.69,4.62,38.93a2,2,0,0,1-1.95,2.4c-10.13,2.56-20.66,3-31,2.29-9.18-.59-17.64-3-26.59-4.15a98.58,98.58,0,0,0,.89-10.15c2.92-.54,35-6.27,35.06-6,.69-6.32-.8-10.9-.2-17.49" transform="translate(-39.19 -33.99)"/><path class="cls-6" d="M144,150.25a653.07,653.07,0,0,1,17.88,70.53l-7.69,2.62L142,169.17" transform="translate(-39.19 -33.99)"/><path class="cls-7" d="M140.17,162.18c6.43.92,13.42-.26,18.38-4.46s7.26-11.76,4.28-17.53c-2.18-4.24-6.81-7.18-7.77-11.85-1.17-5.65,3.54-10.79,4.4-16.49C161.11,101,150.92,97,143.81,92.16c-9.13-6.2-7.59-18.75-8.78-28.33-1.23-9.91-5.49-22.68-15.8-26.44-12-4.38-24.7-4.9-36.3.6C69.16,44.53,64.69,59.16,64,73.43c-.27,5.91-1.53,12.2-5.74,16.35C55,93,50.35,94.51,46.68,97.34a19.27,19.27,0,0,0-2.45,28.25c1.37,1.5,3.09,3,3.19,5S46,134.27,45,136a15.71,15.71,0,0,0-1,13.69,23.21,23.21,0,0,0,9,10.77,20.67,20.67,0,0,0,10.29,3.8c5.33.3,10.09-2.82,13.55-6.64" transform="translate(-39.19 -33.99)"/><path class="cls-2" d="M55.24,72.18H68.6a0,0,0,0,1,0,0v19.7A6.12,6.12,0,0,1,62.48,98H61.36a6.12,6.12,0,0,1-6.12-6.12V72.18A0,0,0,0,1,55.24,72.18Z"/><path class="cls-2" d="M155.72,167.24c-2.59-10.65-17.27-34-23.85-39.39a12.88,12.88,0,0,0-3.64-2,19.38,19.38,0,0,0-6.79-1.14h-13l-4.48.8-4.48-.8H84.1a14.9,14.9,0,0,0-3,.29,16.11,16.11,0,0,0-6.85,2.85c-6.58,5.4-19.46,28.74-22,39.39-1.21,5,24.28,5.89,51.75,5.43C131.44,173.13,156.93,172.23,155.72,167.24Z" transform="translate(-39.19 -33.99)"/><path class="cls-8" d="M68.15,209S46.43,252.05,42,321.23c36.85,13.83,86.72,14.13,124-2.82-5.46-36-17.77-97-31.61-110.81" transform="translate(-39.19 -33.99)"/><polygon class="cls-8" points="41.92 91.02 39.41 117.44 43.69 117.58 43.69 90.79 41.92 91.02"/><polygon class="cls-8" points="83.61 91.02 86.13 117.44 81.85 117.58 81.85 90.79 83.61 91.02"/><path class="cls-6" d="M125.73,154.73c-1.45-8-2.93-16.25-2.93-24.44-.06-1.57-.06-3.58,1.46-4.53a4.12,4.12,0,0,1,2.13-.51,7.2,7.2,0,0,1,3.9,1.13l-1.44-1.65a6,6,0,0,0-5.38-1.62c-4.62.62-6.31,5.92-6.37,9.87a233.1,233.1,0,0,0,.75,24.22,65.31,65.31,0,0,0,7.53.32.6.6,0,0,0,.7-.84C126,156,125.84,155.38,125.73,154.73Z" transform="translate(-39.19 -33.99)"/><path class="cls-9" d="M164.56,210.59c-8.68,2.73-33.27,10.26-51.26,13.63a4.24,4.24,0,0,0-3.43,4.51c1.14,15.19,5.95,52.44,8.74,65.23a4.24,4.24,0,0,0,4.32,3.36c10.09-.45,40.66-2.77,66.72-14.73a4.27,4.27,0,0,0,2.41-4.79c-4.76-21.94-15.12-51.74-22.52-65.21A4.23,4.23,0,0,0,164.56,210.59Z" transform="translate(-39.19 -33.99)"/><path class="cls-10" d="M128.71,127.4a2.39,2.39,0,0,0-1.4-1.84,4.26,4.26,0,0,0-2.37-.29,1.26,1.26,0,0,0,.68,1.11,5.13,5.13,0,0,0,3,1" transform="translate(-39.19 -33.99)"/><path class="cls-10" d="M129,126.33c.21.21.56.14.84,0a4.76,4.76,0,0,0,2.4-1.75,3.25,3.25,0,0,0,.44-2.89,6.17,6.17,0,0,0-2.6,1.67,3.82,3.82,0,0,0-1,2.89" transform="translate(-39.19 -33.99)"/><path class="cls-11" d="M120.4,162.13a15.28,15.28,0,0,1-5.65-3.07c-2.41-2.11-2.51-6.56-1.68-9.4a16.33,16.33,0,0,1,4.44-6.81,19.79,19.79,0,0,0,2.26-2.41,9.17,9.17,0,0,0,1.14-2.63c1-2.75,1.52-7,4.62-8.19a5.12,5.12,0,0,1,6.2,2.31,6.76,6.76,0,0,1,.68,2.91c.12,2.22-.5,4.65-.11,6.83.43,2.33,1.55,4.57,2,6.93.56,3,.83,6.69-.75,9.37C130.8,162.66,125.26,163.56,120.4,162.13Z" transform="translate(-39.19 -33.99)"/><path class="cls-12" d="M128.42,121.31a18.65,18.65,0,0,1-.39,11.42c-.13.34-.64.1-.52-.24a18,18,0,0,0,.38-11c-.1-.35.43-.56.53-.2Z" transform="translate(-39.19 -33.99)"/><path class="cls-12" d="M130.21,133a4,4,0,0,1-4.73-1.88c-.18-.32.28-.65.46-.34a3.45,3.45,0,0,0,4.07,1.69c.35-.1.55.43.2.53Z" transform="translate(-39.19 -33.99)"/><g class="cls-4"><path class="cls-5" d="M94.43,117.71a45,45,0,0,0,13.36-.28V106.17H94.43Z" transform="translate(-39.19 -33.99)"/></g><rect class="cls-2" x="32.7" y="6.4" width="58.44" height="70.57" rx="26.77" ry="26.77"/><path class="cls-7" d="M98.36,68.29l.63,8c.1,1.25,1,4.83-1.11,5.11-.68.09-1.61-.09-2.23.34-2.77,1.91-.55,4.89,1.31,6.47.44.38,1.08-.26.64-.63a10.64,10.64,0,0,1-1.9-1.95c-1.51-2.06,1-3.17,2.7-3.4.57-.07,1.5-.49,1.65-1.14.4-1.8-.09-3.87-.23-5.69l-.56-7.1c-.05-.57-.94-.58-.9,0Z" transform="translate(-39.19 -33.99)"/><path class="cls-7" d="M93.8,89.13c1.47,1.76,3.39,3.27,5.85,2.81a5.75,5.75,0,0,0,4.63-4.32.45.45,0,0,0-.87-.24A4.79,4.79,0,0,1,99,91.1c-2,.14-3.37-1.22-4.52-2.6-.37-.45-1,.19-.64.63Z" transform="translate(-39.19 -33.99)"/><path class="cls-7" d="M84.15,69a8,8,0,0,1,7.45-3.24c.58.06.57-.84,0-.9a8.91,8.91,0,0,0-8.22,3.69c-.35.46.43.91.77.45Z" transform="translate(-39.19 -33.99)"/><path class="cls-7" d="M113.88,68.54a8.92,8.92,0,0,0-8.23-3.69c-.56.06-.57,1,0,.9A8.07,8.07,0,0,1,113.11,69c.33.46,1.11,0,.77-.45Z" transform="translate(-39.19 -33.99)"/><ellipse class="cls-7" cx="49.96" cy="44.12" rx="2.17" ry="3.68"/><ellipse class="cls-7" cx="69.25" cy="44.12" rx="2.17" ry="3.68"/><ellipse class="cls-2" cx="69.47" cy="84.2" rx="6.38" ry="9.06" transform="matrix(0.79, -0.61, 0.61, 0.79, -76.04, 25.47)"/><g class="cls-13"><ellipse class="cls-7" cx="45.99" cy="53.6" rx="6.14" ry="4.44"/></g><g class="cls-13"><ellipse class="cls-7" cx="73.22" cy="53.6" rx="6.14" ry="4.44"/></g><path class="cls-7" d="M68.86,64.85a111.74,111.74,0,0,0,29-10c5.33-2.7,11-6.59,11.82-12.51a3.5,3.5,0,0,0-.18-2,3.45,3.45,0,0,0-1.08-1.2c-2.52-1.91-5.85-2.35-9-2.41A36,36,0,0,0,83,39.93,23.36,23.36,0,0,0,71.43,51.66" transform="translate(-39.19 -33.99)"/><path class="cls-7" d="M104.09,37.38A24.41,24.41,0,0,0,119,64.75a16.78,16.78,0,0,0,12.29,14.92c1.56-9.2,1.45-19-2.42-27.46s-12.06-15.4-21.38-15.83" transform="translate(-39.19 -33.99)"/><ellipse class="cls-2" cx="132.8" cy="84.2" rx="9.06" ry="6.38" transform="translate(-53.92 104.64) rotate(-52.63)"/><path class="cls-14" d="M80.58,107.13c4.59,17.64,7.8,35.61,11.85,53.38a.52.52,0,0,0,1-.22c-4.06-17.77-7.26-35.74-11.86-53.39-.16-.64-1.17-.42-1,.23Z" transform="translate(-39.19 -33.99)"/><path class="cls-14" d="M66.19,117.69C74,132,80.72,146.87,88.12,161.38a.51.51,0,0,0,.91-.48c-7.39-14.51-14.1-29.39-21.93-43.69a.51.51,0,0,0-.91.48Z" transform="translate(-39.19 -33.99)"/><path class="cls-14" d="M90.13,146.26a14.66,14.66,0,0,1-2.85,4.92,7.84,7.84,0,0,0-1.71,4.11,7.28,7.28,0,0,0-2.32-1.22c-.61-.13-1.26-.14-1.88-.26a21.21,21.21,0,0,1-4.45-1.06A14.57,14.57,0,0,1,75,151.52a4.61,4.61,0,0,1-1.78-1.78,2.5,2.5,0,0,1,.33-2.78c.45-.44,1.12-.7,1.37-1.28a1.86,1.86,0,0,0-.8-2c-1.62-1.32-3.92-1.45-5.69-2.58s-4-4.91-1.9-6.75c.45-.39,1-.56,1.51-.94a3,3,0,0,0,.63-3.22,10.5,10.5,0,0,0-1.89-2.9,12.29,12.29,0,0,1-2.34-4.09A5.94,5.94,0,0,1,66,117.31c1.48-1.3,3.85-.72,5.47.41,3.25,2.25,5,6.15,5.86,10,.16.7.54,1.59,1.26,1.51s.88-.8,1.22-1.33a2.94,2.94,0,0,1,3.79-.79,4.36,4.36,0,0,1,2.08,3.51,8.78,8.78,0,0,1-.85,4.14c-.55,1.29-1.55,3-.9,4.39,1,2.2,2.89.47,4.61,1a3.29,3.29,0,0,1,2,2.64A7.23,7.23,0,0,1,90.13,146.26Z" transform="translate(-39.19 -33.99)"/><path class="cls-14" d="M97.08,111.28c-1.14,16.26-1,32.57-1.67,48.85a.52.52,0,0,0,1,.06c.65-16.28.53-32.6,1.67-48.86a.52.52,0,0,0-1,0Z" transform="translate(-39.19 -33.99)"/><path class="cls-14" d="M88.29,147.29a14.69,14.69,0,0,0,4.64,3.28,7.81,7.81,0,0,1,3.28,3,7.23,7.23,0,0,1,1.6-2.07c.5-.37,1.08-.66,1.6-1a20.85,20.85,0,0,0,3.59-2.82,13,13,0,0,0,1.21-1.9,4.59,4.59,0,0,0,.87-2.36,2.5,2.5,0,0,0-1.46-2.39c-.59-.22-1.31-.17-1.78-.59a1.85,1.85,0,0,1-.11-2.15c.92-1.88,3-3,4.09-4.72s1.6-6.15-1.09-6.93c-.57-.16-1.19-.07-1.77-.23a3,3,0,0,1-1.91-2.65,10.34,10.34,0,0,1,.5-3.43,12,12,0,0,0,.42-4.69,6,6,0,0,0-3.86-4.72c-1.89-.55-3.79,1-4.8,2.66-2,3.41-1.93,7.67-1.14,11.55.14.7.17,1.67-.51,1.9s-1.14-.37-1.67-.7a2.93,2.93,0,0,0-3.77.86,4.38,4.38,0,0,0-.42,4.07,8.85,8.85,0,0,0,2.49,3.4c1,.94,2.66,2,2.66,3.61,0,2.42-2.43,1.64-3.76,2.87a3.26,3.26,0,0,0-.75,3.24A7.27,7.27,0,0,0,88.29,147.29Z" transform="translate(-39.19 -33.99)"/><path class="cls-11" d="M98.69,144.68a16.45,16.45,0,0,1-4.43,4.56,8.73,8.73,0,0,0-3,4,8.48,8.48,0,0,0-2.19-1.95c-.62-.3-1.33-.5-2-.8a23.5,23.5,0,0,1-4.53-2.36,15.08,15.08,0,0,1-1.72-1.85,5.15,5.15,0,0,1-1.44-2.41,2.81,2.81,0,0,1,1.12-2.93c.6-.36,1.4-.46,1.83-1a2.07,2.07,0,0,0-.32-2.38c-1.4-1.88-3.86-2.65-5.47-4.35s-3-6.44-.22-7.84c.6-.3,1.3-.33,1.9-.62a3.3,3.3,0,0,0,1.56-3.31,11.57,11.57,0,0,0-1.25-3.67,13.43,13.43,0,0,1-1.43-5.08,6.67,6.67,0,0,1,3.28-6c2-1,4.37.28,5.82,1.94,2.91,3.33,3.7,8,3.63,12.46,0,.81.15,1.88,1,2s1.17-.64,1.69-1.12a3.31,3.31,0,0,1,4.33.18,4.93,4.93,0,0,1,1.29,4.39,10,10,0,0,1-2,4.25c-1,1.25-2.49,2.79-2.17,4.52.49,2.66,3,1.3,4.72,2.38a3.66,3.66,0,0,1,1.48,3.41A7.93,7.93,0,0,1,98.69,144.68Z" transform="translate(-39.19 -33.99)"/><path class="cls-9" d="M101.72,160.13a15.76,15.76,0,0,0-6.54-1.41,12.94,12.94,0,0,0-9.28,3.44c-3.33,3.25-5.69,9.25-2.42,13.37,1.6,2,4.37,2.56,6.89,3.12s5.29,1.47,6.42,3.78c-.53-1.08,2.7-4.29,3.4-4.88,1.56-1.33,3.54-1.79,5-3.17,1.67-1.56,3-3.77,2.65-6C107.46,165.55,104.22,161.34,101.72,160.13Z" transform="translate(-39.19 -33.99)"/><path class="cls-15" d="M82.29,168.61a33.86,33.86,0,0,0,9.79-2.05c.25-.09.06-.45-.19-.36a33.4,33.4,0,0,1-9.58,2c-.26,0-.29.43,0,.41Z" transform="translate(-39.19 -33.99)"/><path class="cls-15" d="M87.69,172.78a24.07,24.07,0,0,0,6.71-1.9c.25-.11,0-.47-.19-.36a23.75,23.75,0,0,1-6.61,1.85c-.26,0-.17.44.09.41Z" transform="translate(-39.19 -33.99)"/><path class="cls-15" d="M94.19,163.41a38,38,0,0,0,8.35-2.54c.24-.11,0-.47-.19-.37A37.25,37.25,0,0,1,94.1,163c-.26,0-.17.45.09.4Z" transform="translate(-39.19 -33.99)"/><path class="cls-15" d="M98.8,166.52a21.93,21.93,0,0,0,3.37-1.05c.24-.1,0-.47-.19-.37a19.82,19.82,0,0,1-3.26,1,.21.21,0,0,0,.08.41Z" transform="translate(-39.19 -33.99)"/><path class="cls-15" d="M84.91,163.94a32.83,32.83,0,0,0,5.58-.84.21.21,0,0,0-.09-.4,32.59,32.59,0,0,1-5.46.83c-.27,0-.29.43,0,.41Z" transform="translate(-39.19 -33.99)"/><path class="cls-15" d="M86.21,177.52a14.49,14.49,0,0,0,4-.48c.25-.07.17-.47-.09-.4a13.67,13.67,0,0,1-3.87.46c-.27,0-.29.41,0,.42Z" transform="translate(-39.19 -33.99)"/><path class="cls-15" d="M99.63,173.71a19.79,19.79,0,0,0,7.58-2.92c.22-.14,0-.5-.19-.36a19.57,19.57,0,0,1-7.48,2.87c-.26,0-.17.45.09.41Z" transform="translate(-39.19 -33.99)"/><path class="cls-15" d="M95.65,177.56a9.17,9.17,0,0,0,2-.75c.24-.11,0-.48-.19-.36a8.92,8.92,0,0,1-1.93.7.21.21,0,0,0,.09.41Z" transform="translate(-39.19 -33.99)"/><path class="cls-15" d="M103.07,169.24a8,8,0,0,0,2.21-.84c.23-.13,0-.5-.19-.37a7.62,7.62,0,0,1-2.11.81.21.21,0,0,0,.09.4Z" transform="translate(-39.19 -33.99)"/><path class="cls-9" d="M113.36,135.72a7.89,7.89,0,0,0-7,2.06,1.49,1.49,0,0,1-.69.43,1.46,1.46,0,0,1-.76-.17c-3.72-1.53-8.66-1.12-10,3.21a18.93,18.93,0,0,0-.46,9.45A9.54,9.54,0,0,0,99.17,157c3,1.61,6.12,1.1,9.3.74a17.13,17.13,0,0,0,9.22-4c2.86-2.5,2.19-7.1,1.54-10.49C118.63,140.09,116.93,136.34,113.36,135.72Z" transform="translate(-39.19 -33.99)"/><path class="cls-10" d="M105.54,135.81a3.69,3.69,0,0,1-2.75-.39A6.31,6.31,0,0,1,99.64,128a5.36,5.36,0,0,1,2.92,1.37,9,9,0,0,1,1.93,2.63,6.44,6.44,0,0,1,.81,4" transform="translate(-39.19 -33.99)"/><path class="cls-10" d="M105.77,132.4A4.55,4.55,0,0,1,108.5,130a8.56,8.56,0,0,1,4.59.22,3.45,3.45,0,0,1-2.06,2,8,8,0,0,1-4.33.59,1.81,1.81,0,0,1-.82-.27" transform="translate(-39.19 -33.99)"/><path class="cls-12" d="M106.72,126.33a34.19,34.19,0,0,0-1.1,15.11c.07.43.74.35.67-.08a33.5,33.5,0,0,1,1-14.76c.12-.41-.5-.69-.62-.27Z" transform="translate(-39.19 -33.99)"/><path class="cls-12" d="M100.79,141.05c3.72,1.73,8.46,1,10.36-3,.19-.4-.43-.67-.62-.27-1.74,3.65-6.09,4.18-9.47,2.61a.34.34,0,0,0-.27.62Z" transform="translate(-39.19 -33.99)"/><path class="cls-16" d="M129,90.63c.6-5,2.72-10.37,8.14-11.68.56-.14.32-1-.24-.87-5.83,1.42-8.15,7.12-8.8,12.55-.07.58.83.57.9,0Z" transform="translate(-39.19 -33.99)"/><path class="cls-16" d="M129.82,86.86a12.47,12.47,0,0,1,5.09-1.17.45.45,0,0,0,0-.89,13.31,13.31,0,0,0-5.54,1.29c-.53.24-.07,1,.45.77Z" transform="translate(-39.19 -33.99)"/><path class="cls-16" d="M65.1,79.61c4,.44,6.81,5.9,7.7,9.32a.45.45,0,0,0,.87-.24c-1-3.9-4.09-9.49-8.57-10-.58-.07-.57.83,0,.89Z" transform="translate(-39.19 -33.99)"/><path class="cls-16" d="M66.76,85.29a10.2,10.2,0,0,1,4.53-.17c.57.11.81-.76.24-.86a11.11,11.11,0,0,0-5,.17.45.45,0,0,0,.23.86Z" transform="translate(-39.19 -33.99)"/><path class="cls-17" d="M137.67,149.53c-.76-.67-13-.93-27.28-1v0c-2.24,0-4.5,0-6.75,0s-4.51,0-6.75,0v0c-14.25.08-26.52.34-27.27,1-1.85,1.62,2.5,56.9,6.09,77.27a147.08,147.08,0,0,0,21.18,1.82v.12c2.18,0,4.45,0,6.75,0s4.57,0,6.75,0v-.12a147.23,147.23,0,0,0,21.19-1.82C135.17,206.43,139.51,151.15,137.67,149.53Z" transform="translate(-39.19 -33.99)"/><g class="cls-18"><path class="cls-19" d="M117.67,219.85c1.53,0,3.09-.12,4.66-.22.29-.06.58-.11.85-.18,4-14.8,5.8-50.66,6-55.69-4.13-.54-8.31-.92-12.49-1.2-12.25-.84-25.11-1.29-37,2l2.39,52.38C93.89,218.46,105.64,220.29,117.67,219.85Z" transform="translate(-39.19 -33.99)"/></g><path class="cls-20" d="M45.85,314.87c-1.11-.33-2.22-.68-3.32-1q-.31,3.65-.55,7.39c36.85,13.83,86.72,14.13,124-2.82-.36-2.4-.76-4.9-1.18-7.5-1.7.58-3.41,1.11-5.12,1.62C122.78,323.51,82.74,325.84,45.85,314.87Z" transform="translate(-39.19 -33.99)"/><path class="cls-2" d="M155.41,166.09l-15.21,4.58c-.12.42-.25.84-.38,1.26s-.09.66-.11.76c-.27,1.26-.52,2.53-.8,3.79A44.78,44.78,0,0,1,137,183a3.72,3.72,0,0,1-.47.83,35.82,35.82,0,0,1-.15,5.52c0-.22-32.13,5.51-35,6a98.58,98.58,0,0,1-.89,10.15c9,1.11,17.41,3.56,26.59,4.15,10.38.67,20.91.27,31-2.29A2,2,0,0,0,160,205C159.82,191.78,158.91,178.61,155.41,166.09Z" transform="translate(-39.19 -33.99)"/><path class="cls-8" d="M162.89,236.24c-7.41-4.41-19.8-3.85-26.28,2.23A21.34,21.34,0,0,0,130.36,251c-1.56,11,5,22.63,16.6,23.48,15.6,1.15,29.65-9.17,25.16-25.76A21.06,21.06,0,0,0,162.89,236.24Z" transform="translate(-39.19 -33.99)"/><path class="cls-8" d="M126.52,233.21a15.76,15.76,0,0,0,2.52,3.34c.4.42,1-.22.63-.63a14.93,14.93,0,0,1-2.37-3.16c-.28-.51-1.06-.06-.78.45Z" transform="translate(-39.19 -33.99)"/><path class="cls-8" d="M118.1,246.51l4.62,1c.57.13.81-.74.24-.86l-4.62-1c-.57-.12-.8.75-.24.87Z" transform="translate(-39.19 -33.99)"/><path class="cls-8" d="M120.64,265.65l4.33-2.73c.49-.3,0-1.08-.45-.77l-4.33,2.72c-.49.31,0,1.08.45.78Z" transform="translate(-39.19 -33.99)"/><path class="cls-8" d="M127.86,279.58l3.53-5.15c.33-.47-.45-.92-.77-.45l-3.54,5.15c-.32.48.45.92.78.45Z" transform="translate(-39.19 -33.99)"/><path class="cls-8" d="M140.06,226.05a19.27,19.27,0,0,0,1.63,5c.25.52,1,.07.77-.45a18.34,18.34,0,0,1-1.53-4.79c-.11-.57-1-.33-.87.24Z" transform="translate(-39.19 -33.99)"/><path class="cls-8" d="M155.29,229.31a26.72,26.72,0,0,1,2.11-4.77c.28-.51-.5-1-.78-.46a29.56,29.56,0,0,0-2.2,5c-.18.55.69.79.87.24Z" transform="translate(-39.19 -33.99)"/><path class="cls-8" d="M164.37,233l3.24-3.54c.39-.43-.25-1.07-.64-.64l-3.24,3.54c-.39.43.25,1.06.64.64Z" transform="translate(-39.19 -33.99)"/><path class="cls-8" d="M175,243.43l2.18-.51c.56-.13.33-1-.24-.86l-2.17.5a.45.45,0,0,0,.23.87Z" transform="translate(-39.19 -33.99)"/><path class="cls-8" d="M144.16,280.87a10.06,10.06,0,0,0-.33,4.56c.09.57.95.32.87-.24a8.94,8.94,0,0,1,.33-4.08c.17-.56-.7-.79-.87-.24Z" transform="translate(-39.19 -33.99)"/><path class="cls-8" d="M162.58,279l2.11,4.9c.23.53,1,.08.77-.45l-2.1-4.91c-.23-.53-1-.07-.78.46Z" transform="translate(-39.19 -33.99)"/><path class="cls-8" d="M173.31,272.15a15,15,0,0,0,3.91,1.38c.57.12.81-.75.24-.86a14.22,14.22,0,0,1-3.69-1.3c-.52-.27-1,.51-.46.78Z" transform="translate(-39.19 -33.99)"/><path class="cls-8" d="M177,260a23.3,23.3,0,0,0,5,1.15c.58.07.57-.83,0-.9a22.3,22.3,0,0,1-4.75-1.11c-.55-.19-.78.67-.24.86Z" transform="translate(-39.19 -33.99)"/><path class="cls-9" d="M137,252.37c.38,2,1.52,5.71,4.21,5.41,3-.33,2.36-5.53,2.42-7.47,0-.58-.88-.57-.9,0-.05,1.81.26,4.2-.62,5.82-1.16,2.13-2.74-.08-3.27-1a10,10,0,0,1-1-3c-.1-.57-1-.33-.86.24Z" transform="translate(-39.19 -33.99)"/><path class="cls-9" d="M155.63,247.79c.56,1.88,2.56,6.2,5.1,5.58,1.15-.28,1.76-2.13,2.06-3.09a7.56,7.56,0,0,0-.14-4.68c-.18-.54-1.05-.31-.86.24A7,7,0,0,1,161,252c-1.47,2.3-4.26-3.52-4.53-4.42a.45.45,0,0,0-.86.24Z" transform="translate(-39.19 -33.99)"/><path class="cls-9" d="M146.52,252.23c-.13,1.53,2.3,3,3.69,2.67,2.06-.55,2.32-2.71,2.3-4.53a.45.45,0,0,0-.9,0,4.3,4.3,0,0,1-.83,3.25c-.86.89-3.47-.07-3.36-1.39.05-.58-.85-.57-.9,0Z" transform="translate(-39.19 -33.99)"/><g class="cls-21"><path class="cls-5" d="M103.82,195a13.11,13.11,0,0,0-.14,8.61,5.21,5.21,0,0,0,2.45,2.86c4.46.78,8.87,1.71,13.37,2.41,0-.07-.07-.14-.11-.2a16.65,16.65,0,0,0-2.94-3.45,10.78,10.78,0,0,0,3.11.69,1.78,1.78,0,0,0,1.32-.29,1.46,1.46,0,0,0,.37-1.15,4.39,4.39,0,0,0-1.3-2.81,12.12,12.12,0,0,0-2.54-1.88,5.27,5.27,0,0,0,5.22-.45,1.85,1.85,0,0,0,.66-.73c.33-.74-.21-1.56-.78-2.14a11,11,0,0,0-7-3.2,10.23,10.23,0,0,0,1.21-.56Z" transform="translate(-39.19 -33.99)"/></g><path class="cls-2" d="M119.12,197.15c-2.72-2.12-6.46-2.18-9.9-2.15a34.74,34.74,0,0,0,5.79-3.71,1.35,1.35,0,0,0,.59-.81c.07-.84-1.2-.95-2-.68-4.59,1.53-9.09,4.15-13.79,4.42-10.25-1.82-28.43-5-28.44-4.86,0-.16-.44-.58-.43-.74-1-.68-1.27-1.61-1-3.12.51-3-.59-6.06-1.06-9-.3-1.93-.34-4-.65-6l-15.58-4.92c-3.93,13.13-4.7,26.12-4.9,39.36a2.63,2.63,0,0,0,.26,1.47,2.66,2.66,0,0,0,1.69.93c10.12,2.56,20.65,3,31,2.29,8.4-.54,16.22-2.63,24.35-3.83,1.32,1.6,2.32,3.57,3.54,5.28a3.13,3.13,0,0,0,1.16,1.1,1.16,1.16,0,0,0,1.43-.35,1.6,1.6,0,0,0,.11-1,16.09,16.09,0,0,0-2.56-7.24c1.3,1.33,4.69,6,7.45,5.79,2.53-1.89-4.82-6.17-5.78-7.9l6.29,1.84a1.5,1.5,0,0,0,1,0c.85-.37.33-1.66-.35-2.29a14.43,14.43,0,0,0-5.15-3.1c1.92.27,3.84.49,5.78.64.7.06,1.7-.17,1.62-.88A1.11,1.11,0,0,0,119.12,197.15Z" transform="translate(-39.19 -33.99)"/></g></g></svg>